<svg width="24" height="24" viewBox="0 0 24 24" fill="none" xmlns="http://www.w3.org/2000/svg">
<g id="cib-twitter" clip-path="url(#clip0_137_1159)">
<path id="Vector" d="M23.9528 4.56986C23.07 4.95686 22.125 5.22311 21.129 5.34386C22.1453 4.73411 22.9223 3.76961 23.2928 2.62061C22.3395 3.17561 21.285 3.57761 20.1638 3.80486C19.2698 2.84786 17.9918 2.24561 16.5735 2.24561C13.8548 2.24561 11.6513 4.44836 11.6513 7.16336C11.6513 7.55411 11.6985 7.92911 11.7803 8.28461C7.69053 8.09336 4.06504 6.12836 1.64029 3.15986C1.21429 3.88286 0.972035 4.72286 0.972035 5.63711C0.972035 7.34786 1.84279 8.84786 3.15903 9.72986C2.35429 9.70661 1.59679 9.48386 0.933035 9.11711V9.17635C0.933035 11.5621 2.62804 13.5511 4.87804 14.0041C4.46779 14.1129 4.02979 14.1759 3.58504 14.1759C3.26929 14.1759 2.96779 14.1451 2.66704 14.0896C3.30004 16.0426 5.11203 17.4646 7.27204 17.5074C5.59278 18.8236 3.46429 19.6081 1.17079 19.6081C0.780035 19.6081 0.390035 19.5894 -0.00146484 19.5421C2.18629 20.9371 4.76853 21.7531 7.55779 21.7531C16.608 21.7531 21.5535 14.2569 21.5535 7.76486C21.5535 7.55786 21.5535 7.34711 21.5378 7.13561C22.503 6.44786 23.3385 5.57636 23.9985 4.58861L23.9528 4.56986Z" fill="black"/>
</g>
<defs>
<clipPath id="clip0_137_1159">
<rect width="24" height="24" fill="white"/>
</clipPath>
</defs>
</svg>
