<svg width="24" height="24" viewBox="0 0 24 24" fill="none" xmlns="http://www.w3.org/2000/svg">
<g id="cil-location-pin">
<path id="Vector" d="M11.9028 5.98096C11.3095 5.98096 10.7295 6.1569 10.2361 6.48655C9.74278 6.81619 9.35826 7.28473 9.13119 7.83291C8.90413 8.38109 8.84472 8.98428 8.96048 9.56623C9.07623 10.1482 9.36195 10.6827 9.78151 11.1023C10.2011 11.5218 10.7356 11.8076 11.3176 11.9233C11.8995 12.0391 12.5027 11.9797 13.0509 11.7526C13.5991 11.5255 14.0676 11.141 14.3972 10.6477C14.7269 10.1543 14.9028 9.5743 14.9028 8.98096C14.9019 8.18559 14.5856 7.42305 14.0232 6.86064C13.4607 6.29822 12.6982 5.98186 11.9028 5.98096ZM11.9028 10.481C11.6062 10.481 11.3162 10.393 11.0695 10.2282C10.8228 10.0633 10.6305 9.82907 10.517 9.55498C10.4035 9.28089 10.3738 8.97929 10.4317 8.68832C10.4895 8.39735 10.6324 8.13008 10.8422 7.9203C11.052 7.71052 11.3192 7.56766 11.6102 7.50978C11.9012 7.4519 12.2028 7.48161 12.4769 7.59514C12.7509 7.70867 12.9852 7.90093 13.15 8.1476C13.3149 8.39428 13.4028 8.68428 13.4028 8.98096C13.4024 9.37864 13.2442 9.75991 12.963 10.0411C12.6818 10.3223 12.3005 10.4805 11.9028 10.481Z" fill="black"/>
<path id="Vector_2" d="M17.6676 3.21158C16.2423 1.7866 14.3396 0.940103 12.3269 0.835465C10.3141 0.730828 8.33391 1.37547 6.76849 2.64497C5.20307 3.91447 4.16338 5.71883 3.85009 7.70981C3.5368 9.7008 3.97212 11.7373 5.07202 13.4262L10.7395 22.1268C10.8657 22.3204 11.0381 22.4794 11.2412 22.5895C11.4444 22.6997 11.6718 22.7573 11.9029 22.7573C12.1339 22.7573 12.3613 22.6997 12.5645 22.5895C12.7676 22.4794 12.9401 22.3204 13.0662 22.1268L18.7339 13.4262C19.7545 11.8595 20.2055 9.98955 20.0114 8.12986C19.8172 6.27017 18.9898 4.53373 17.6676 3.21158ZM17.4771 12.6074L11.9029 21.1644L6.32865 12.6074C4.6224 9.98806 4.98835 6.48275 7.19879 4.27222C7.81653 3.65446 8.54991 3.16442 9.35704 2.83009C10.1642 2.49576 11.0292 2.32368 11.9029 2.32368C12.7765 2.32368 13.6416 2.49576 14.4487 2.83009C15.2559 3.16442 15.9892 3.65446 16.607 4.27222C18.8174 6.48275 19.1833 9.98806 17.4771 12.6074Z" fill="black"/>
</g>
</svg>
