<svg width="24" height="24" viewBox="0 0 24 24" fill="none" xmlns="http://www.w3.org/2000/svg">
<g id="cil-happy" clip-path="url(#clip0_137_1164)">
<path id="Vector" d="M12 0.75C5.78681 0.75 0.75 5.78681 0.75 12C0.75 18.2132 5.78681 23.25 12 23.25C18.2132 23.25 23.25 18.2132 23.25 12C23.25 5.78681 18.2132 0.75 12 0.75ZM18.8943 18.8943C17.1848 20.5987 14.9019 21.6056 12.4906 21.7188C10.0792 21.832 7.7121 21.0434 5.85044 19.5066C3.98877 17.9698 2.76594 15.795 2.4202 13.4059C2.07446 11.0168 2.63058 8.5845 3.98021 6.58302C5.32984 4.58153 7.37629 3.15421 9.72081 2.57917C12.0653 2.00412 14.54 2.32255 16.6625 3.4724C18.7851 4.62226 20.4035 6.52117 21.2025 8.79912C22.0014 11.0771 21.9237 13.5709 20.9844 15.7947C20.4948 16.9534 19.785 18.0061 18.8943 18.8943Z" fill="black"/>
<path id="Vector_2" d="M9 9.375H7.125V11.25H9V9.375Z" fill="black"/>
<path id="Vector_3" d="M16.875 9.375H15V11.25H16.875V9.375Z" fill="black"/>
<path id="Vector_4" d="M15.8573 14.4C15.5672 15.1321 15.0632 15.7598 14.4111 16.2013C13.7591 16.6428 12.9891 16.8775 12.2016 16.875H11.7985C11.011 16.8776 10.241 16.6428 9.58883 16.2013C8.93671 15.7598 8.43273 15.1321 8.1426 14.4L8.08264 14.25H6.46729L6.75003 14.9569C7.15362 15.9659 7.85028 16.8308 8.75014 17.4401C9.64999 18.0493 10.7118 18.375 11.7985 18.375H12.2016C13.2883 18.375 14.3501 18.0493 15.2499 17.4401C16.1498 16.8308 16.8464 15.9659 17.25 14.9569L17.5328 14.25H15.9173L15.8573 14.4Z" fill="black"/>
</g>
<defs>
<clipPath id="clip0_137_1164">
<rect width="24" height="24" fill="white"/>
</clipPath>
</defs>
</svg>
