<svg width="32" height="33" viewBox="0 0 32 33" fill="none" xmlns="http://www.w3.org/2000/svg">
<g id="Media / Icon">
<path id="Icon" d="M20.3332 23.7222H27.5554L25.5261 21.6929C24.9757 21.1425 24.6666 20.3961 24.6666 19.6178V15.0556C24.6666 11.282 22.2549 8.07179 18.8888 6.88204V6.38889C18.8888 4.7934 17.5954 3.5 15.9999 3.5C14.4044 3.5 13.111 4.7934 13.111 6.38889V6.88204C9.74489 8.07179 7.33322 11.282 7.33322 15.0556V19.6178C7.33322 20.3961 7.02404 21.1425 6.47368 21.6929L4.44434 23.7222H11.6666M20.3332 23.7222V25.1667C20.3332 27.5599 18.3931 29.5 15.9999 29.5C13.6067 29.5 11.6666 27.5599 11.6666 25.1667V23.7222M20.3332 23.7222H11.6666" stroke="#111827" stroke-width="2.67" stroke-linecap="round" stroke-linejoin="round"/>
</g>
</svg>
