<svg width="228" height="48" viewBox="0 0 228 48" fill="none" xmlns="http://www.w3.org/2000/svg">
<g id="signin 1" clip-path="url(#clip0_137_1221)">
<g id="Page-1">
<g id="_x30_1-Desktop">
<g id="Group-6">
<g id="Group-4">
<path id="Background" fill-rule="evenodd" clip-rule="evenodd" d="M3.9027 0H224.2C226.357 0 228.103 1.89767 228.103 4.24186V43.8698C228.103 46.214 226.357 48.1116 224.2 48.1116H3.9027C1.74595 48 0 46.1023 0 43.7581V4.24186C0 1.89767 1.74595 0 3.9027 0Z" fill="#08833D"/>
</g>
<g id="Group">
<path id="Vector" d="M49.4009 25.6748C49.4009 26.791 49.0928 27.5724 48.3739 28.2422C47.655 28.912 46.628 29.1352 45.3955 29.1352C44.2658 29.1352 43.1361 28.912 42.3145 28.4654V26.1213C43.0334 26.4561 43.6496 26.6794 44.1631 26.9027C44.6766 27.0143 45.1901 27.1259 45.6009 27.1259C46.1145 27.1259 46.5253 27.0143 46.7307 26.791C47.0388 26.5678 47.1415 26.2329 47.1415 25.898C47.1415 25.6748 47.0388 25.4515 46.9361 25.2282C46.8334 25.005 46.628 24.8934 46.4226 24.6701C46.2172 24.4468 45.7036 24.2236 44.9847 23.8887C44.2658 23.5538 43.855 23.2189 43.4442 22.8841C43.0334 22.5492 42.828 22.2143 42.6226 21.7678C42.4172 21.3213 42.3145 20.8748 42.3145 20.3166C42.3145 19.312 42.6226 18.4189 43.3415 17.8608C43.9577 17.3027 44.882 16.9678 46.1145 16.9678C46.7307 16.9678 47.2442 17.0794 47.7577 17.191C48.2712 17.3027 48.7847 17.5259 49.4009 17.8608L48.682 19.8701C48.0658 19.6468 47.655 19.4236 47.2442 19.312C46.8334 19.2003 46.5253 19.2003 46.1145 19.2003C45.7036 19.2003 45.2928 19.312 45.0874 19.5352C44.882 19.7585 44.7793 20.0934 44.7793 20.4282C44.7793 20.6515 44.7793 20.8747 44.882 20.9864C44.9847 21.098 45.0874 21.3213 45.2928 21.4329C45.4982 21.5445 46.0117 21.8794 46.7307 22.3259C47.7577 22.8841 48.4766 23.4422 48.8874 23.8887C49.1955 24.2236 49.4009 24.8934 49.4009 25.6748Z" fill="white"/>
<path id="Vector_2" d="M51.0449 17.5258C51.0449 16.7444 51.4557 16.2979 52.2774 16.2979C53.099 16.2979 53.5098 16.7444 53.5098 17.5258C53.5098 17.8606 53.4071 18.1955 53.2017 18.4188C52.9963 18.642 52.6882 18.7537 52.2774 18.7537C51.4557 18.7537 51.0449 18.3072 51.0449 17.5258ZM53.5098 29.0234H51.2503V19.8699H53.5098V29.0234Z" fill="white"/>
<path id="Vector_3" d="M63.1627 19.8697V21.0976L61.8275 21.4325C62.0329 21.879 62.2383 22.3256 62.2383 22.7721C62.2383 23.7767 61.9302 24.5581 61.314 25.1163C60.6978 25.6744 59.7735 25.8976 58.6437 25.8976H58.2329H57.9248C57.7194 26.1209 57.6167 26.3442 57.6167 26.5674C57.6167 26.9023 58.0275 27.1256 58.8492 27.1256H60.287C61.2113 27.1256 61.9302 27.3488 62.4437 27.7953C62.9573 28.2418 63.1627 28.9116 63.1627 29.693C63.1627 30.8093 62.7519 31.5907 61.9302 32.1488C61.1086 32.7069 59.9789 33.0418 58.4383 33.0418C57.3086 33.0418 56.3843 32.8186 55.7681 32.3721C55.1519 31.9256 54.8438 31.2558 54.8438 30.4744C54.8438 29.9163 55.0492 29.4697 55.3573 29.1349C55.6654 28.8 56.1789 28.4651 56.7951 28.3535C56.5897 28.2418 56.3843 28.0186 56.1789 27.7953C55.9735 27.5721 55.8708 27.2372 55.8708 27.0139C55.8708 26.679 55.9735 26.3442 56.1789 26.1209C56.3843 25.8976 56.5897 25.6744 57.0005 25.4511C56.5897 25.2279 56.1789 24.893 55.9735 24.4465C55.7681 24 55.5627 23.4418 55.5627 22.7721C55.5627 21.7674 55.8708 20.986 56.487 20.4279C57.1032 19.8697 57.9248 19.6465 59.0546 19.6465C59.26 19.6465 59.5681 19.6465 59.8762 19.7581C60.1843 19.7581 60.3897 19.8697 60.4924 19.8697H63.1627ZM56.6924 30.3628C56.6924 30.6976 56.7951 30.9209 57.1032 31.1442C57.4113 31.3674 57.8221 31.479 58.3356 31.479C59.1573 31.479 59.7735 31.3674 60.287 31.1442C60.8005 30.9209 61.0059 30.586 61.0059 30.1395C61.0059 29.8046 60.9032 29.5814 60.5951 29.4697C60.287 29.3581 59.8762 29.2465 59.3627 29.2465H58.1302C57.7194 29.2465 57.3086 29.3581 57.1032 29.5814C56.8978 29.693 56.6924 29.9163 56.6924 30.3628ZM57.514 22.8837C57.514 23.3302 57.6167 23.7767 57.8221 24.1116C58.0275 24.4465 58.3356 24.5581 58.7465 24.5581C59.1573 24.5581 59.4654 24.4465 59.6708 24.1116C59.8762 23.7767 59.9789 23.4418 59.9789 22.8837C59.9789 21.7674 59.5681 21.2093 58.7465 21.2093C57.9248 21.2093 57.514 21.7674 57.514 22.8837Z" fill="white"/>
<path id="Vector_4" d="M72.4058 29.0232H70.1464V23.6651C70.1464 22.9953 70.0437 22.5488 69.8383 22.2139C69.6329 21.879 69.3247 21.7674 68.8112 21.7674C68.195 21.7674 67.6815 21.9907 67.3734 22.4372C67.0653 22.8837 66.9626 23.6651 66.9626 24.7814V29.0232H64.7031V19.8697H66.4491L66.7572 20.986C66.9626 20.5395 67.3734 20.2046 67.7842 19.9814C68.195 19.7581 68.7085 19.6465 69.3247 19.6465C70.3518 19.6465 71.0707 19.9814 71.5842 20.5395C72.0977 21.0976 72.3031 21.9907 72.3031 22.9953V29.0232H72.4058Z" fill="white"/>
<path id="Vector_5" d="M78.6719 17.5258C78.6719 16.7444 79.0827 16.2979 79.9043 16.2979C80.7259 16.2979 81.1367 16.7444 81.1367 17.5258C81.1367 17.8606 81.034 18.1955 80.8286 18.4188C80.6232 18.642 80.3151 18.7537 79.9043 18.7537C79.0827 18.7537 78.6719 18.3072 78.6719 17.5258ZM81.034 29.0234H78.7746V19.8699H81.034V29.0234Z" fill="white"/>
<path id="Vector_6" d="M91.2007 29.0232H88.9413V23.6651C88.9413 22.9953 88.8386 22.5488 88.6332 22.2139C88.4278 21.879 88.1197 21.7674 87.6062 21.7674C86.9899 21.7674 86.4764 21.9907 86.1683 22.4372C85.8602 22.8837 85.7575 23.6651 85.7575 24.7814V29.0232H83.498V19.8697H85.244L85.5521 20.986H85.6548C85.8602 20.5395 86.271 20.2046 86.6818 19.9814C87.0926 19.7581 87.6062 19.6465 88.2224 19.6465C89.2494 19.6465 89.9683 19.9814 90.4818 20.5395C90.9953 21.0976 91.2007 21.9907 91.2007 22.9953V29.0232Z" fill="white"/>
<path id="Vector_7" d="M104.449 29.0236L103.833 25.7864L103.011 21.7678H102.909L101.368 29.0236H98.9032L96.541 19.8701H98.8005L99.7248 23.8887C99.9302 24.5585 100.033 25.5631 100.238 26.9027C100.238 26.4562 100.341 25.7864 100.546 24.8934L100.649 24.2236L101.676 19.8701H104.244L105.271 24.2236C105.271 24.3352 105.271 24.5585 105.373 24.7817C105.373 25.005 105.476 25.2283 105.476 25.5631C105.476 25.7864 105.579 26.1213 105.579 26.3445C105.579 26.5678 105.682 26.791 105.682 26.9027C105.682 26.4562 105.784 26.0097 105.887 25.3399C105.99 24.6701 106.092 24.2236 106.092 24.0004L107.119 19.9817H109.379L106.914 29.1352H104.449V29.0236Z" fill="white"/>
<path id="Vector_8" d="M110.611 17.5258C110.611 16.7444 111.022 16.2979 111.844 16.2979C112.665 16.2979 113.076 16.7444 113.076 17.5258C113.076 17.8606 112.973 18.1955 112.768 18.4188C112.563 18.642 112.255 18.7537 111.844 18.7537C111.022 18.7537 110.611 18.3072 110.611 17.5258ZM113.076 29.0234H110.817V19.8699H113.076V29.0234Z" fill="white"/>
<path id="Vector_9" d="M118.931 27.2372C119.342 27.2372 119.855 27.1255 120.369 26.9023V28.8C119.753 29.0232 119.136 29.2465 118.212 29.2465C117.288 29.2465 116.672 29.0232 116.158 28.4651C115.747 27.9069 115.542 27.2372 115.542 26.2325V21.879H114.412V20.8744L115.645 20.093L116.261 18.1953H117.699V20.093H120.061V21.9907H117.699V26.3442C117.699 26.679 117.801 27.0139 118.007 27.1255C118.212 27.2372 118.726 27.2372 118.931 27.2372Z" fill="white"/>
<path id="Vector_10" d="M129.919 29.0234H127.66V23.6653C127.66 22.3258 127.249 21.656 126.325 21.656C125.709 21.656 125.195 21.8792 124.887 22.3258C124.579 22.7723 124.476 23.5537 124.476 24.6699V29.0234H122.217V16.2979H124.476V18.8653C124.476 19.0885 124.476 19.5351 124.374 20.3165L124.271 21.0979H124.374C124.887 20.2048 125.709 19.7583 126.838 19.7583C127.865 19.7583 128.584 20.0932 129.098 20.6513C129.611 21.2095 129.817 22.1025 129.817 23.1072V29.0234H129.919Z" fill="white"/>
</g>
<g id="idme-wallet">
<path id="Shape" d="M142.86 13.3955H142.038C141.114 13.3955 140.703 13.7304 140.703 14.4002V31.3676C140.703 32.0374 141.114 32.3723 142.038 32.3723H142.757C143.682 32.3723 144.092 32.0374 144.092 31.3676V14.4002C144.195 13.7304 143.682 13.3955 142.86 13.3955Z" fill="white"/>
<path id="Shape_1_" d="M157.238 30.3629C157.238 28.3536 158.47 26.5676 160.216 26.0095C160.422 25.1164 160.524 24.0002 160.524 22.8839C160.524 16.7443 157.546 13.3955 152.205 13.3955H146.557C145.735 13.3955 145.324 13.7304 145.324 14.6234V31.1443C145.324 31.9257 145.735 32.3723 146.454 32.3723H152.103C154.157 32.3723 155.8 31.9257 157.135 30.9211C157.238 30.8095 157.238 30.5862 157.238 30.3629ZM152.205 28.5769H149.638V17.1909H152.205C155.492 17.1909 156.211 20.3164 156.211 22.8839C156.211 25.4513 155.492 28.5769 152.205 28.5769Z" fill="white"/>
<path id="Oval" d="M161.039 32.3725C162.003 32.3725 162.785 31.5229 162.785 30.4748C162.785 29.4268 162.003 28.5771 161.039 28.5771C160.075 28.5771 159.293 29.4268 159.293 30.4748C159.293 31.5229 160.075 32.3725 161.039 32.3725Z" fill="white"/>
<path id="Shape_2_" d="M188.153 27.2372C188.05 27.2372 188.05 27.2372 187.947 27.2372C187.639 27.2372 187.536 27.3488 187.331 27.5721C187.228 27.6837 187.126 27.907 187.023 28.1302C186.715 28.8 186.304 29.4697 185.791 29.9163C185.072 30.586 184.045 30.9209 183.223 30.6977C182.709 30.586 182.401 30.1395 182.093 29.9163C181.682 29.3581 181.477 28.4651 181.58 27.5721C182.812 27.4604 186.612 26.7907 187.023 23.6651C187.126 23.107 186.92 22.4372 186.612 21.9907C186.201 21.4325 185.38 21.0977 184.558 21.0977C181.991 21.0977 179.526 24 179.218 27.3488C179.115 28.2418 179.218 29.1349 179.526 29.9163C179.32 30.1395 179.115 30.2511 178.909 30.3628C178.704 30.4744 178.499 30.4744 178.396 30.4744C178.191 30.3628 178.191 30.1395 178.088 30.0279C177.985 29.4697 178.088 28.6884 178.293 28.0186C178.396 27.5721 178.499 27.1256 178.601 26.7907C178.909 25.5628 179.218 24.3349 179.115 23.107C179.012 21.9907 178.293 21.2093 177.164 21.2093C175.623 21.2093 174.596 22.4372 173.98 23.4418C173.98 22.6604 173.774 22.1023 173.466 21.7674C173.158 21.4325 172.747 21.2093 172.131 21.2093C170.591 21.2093 169.666 22.3256 168.947 23.3302C168.947 23.2186 168.947 23.107 168.947 22.9953C168.947 22.5488 169.05 21.9907 168.639 21.5442C168.434 21.3209 168.228 21.2093 167.818 21.2093C167.509 21.2093 167.407 21.2093 167.099 21.3209C167.099 21.3209 166.791 21.4325 166.688 21.5442C166.482 21.7674 166.585 22.1023 166.585 22.3256C166.585 22.3256 166.585 22.3256 166.585 22.4372C166.585 22.5488 166.585 22.7721 166.585 22.9953C166.482 24.2232 166.277 25.4511 166.174 26.4558C166.072 27.0139 165.969 27.5721 165.866 28.1302C165.558 29.3581 165.353 30.6977 165.25 31.9256C165.25 32.0372 165.25 32.1488 165.353 32.2604C165.455 32.3721 165.558 32.3721 165.661 32.3721H165.764C166.585 32.3721 167.407 32.3721 167.612 31.8139C167.818 31.2558 167.92 30.586 168.023 29.9163L168.126 29.5814C168.331 28.1302 168.536 27.1256 169.05 25.8977C169.255 25.2279 169.666 24.6697 169.974 24.2232C170.385 23.6651 170.796 23.107 171.309 23.107C171.515 23.107 171.618 23.2186 171.72 23.3302C172.131 24 171.618 26.2325 171.309 27.2372C171.207 27.4604 171.207 27.5721 171.207 27.7953L171.001 28.5767C170.693 29.693 170.488 30.6977 170.385 31.9256C170.385 32.0372 170.385 32.1488 170.385 32.2604V32.3721L170.488 32.4837C170.693 32.707 172.234 32.3721 172.234 32.3721C172.747 32.1488 172.953 31.5907 172.953 31.3674C173.055 30.8093 173.158 30.3628 173.261 29.9163C173.466 29.0232 173.569 28.0186 173.877 27.1256C174.391 25.3395 175.109 24.1116 175.828 23.4418C176.136 23.2186 176.547 23.107 176.65 23.3302C176.958 23.6651 176.753 24.7814 176.65 25.2279C176.547 25.786 176.445 26.4558 176.239 27.1256C176.136 27.4604 176.034 27.907 175.931 28.3535C175.726 29.5814 175.52 31.0325 176.136 31.9256C176.445 32.3721 176.958 32.5953 177.574 32.5953C178.293 32.5953 178.909 32.3721 179.628 31.8139C179.834 31.7023 180.039 31.4791 180.245 31.2558C181.066 32.2604 181.888 32.707 183.223 32.707C186.099 32.707 187.434 30.586 188.255 29.0232C188.358 28.8 188.461 28.5767 188.564 28.3535C188.461 27.6837 188.358 27.3488 188.153 27.2372ZM184.558 23.2186C184.558 23.3302 184.558 23.3302 184.558 23.3302C184.558 23.3302 184.558 23.4418 184.558 23.5535C184.558 23.7767 184.455 24.1116 184.455 24.3349C184.045 25.786 182.915 26.1209 181.888 26.1209C181.991 25.4511 182.196 24.893 182.504 24.3349C183.018 23.2186 183.634 22.5488 184.147 22.5488C184.25 22.5488 184.25 22.5488 184.25 22.5488C184.25 22.5488 184.25 22.5488 184.353 22.5488C184.353 22.5488 184.353 22.5488 184.455 22.6604C184.455 22.6604 184.455 22.6604 184.455 22.7721C184.455 22.7721 184.455 22.7721 184.455 22.8837C184.455 22.8837 184.455 22.8837 184.455 22.9953V23.107C184.558 23.107 184.558 23.107 184.558 23.2186Z" fill="white"/>
</g>
</g>
</g>
</g>
</g>
<defs>
<clipPath id="clip0_137_1221">
<rect width="228" height="48" fill="white"/>
</clipPath>
</defs>
</svg>
